# xmcd
#
# Track frame offsets:
#	150
#	9907
#	18787
#	33912
#	44347
#	63087
#	67340
#
# Disc length: 1154 seconds
#
# Revision: 1
# Processed by: cddbd v1.5.2PL0 Copyright (c) Steve Scherf et al.
# Submitted via: audiograbber 1.83.01
#
DISCID=4e048007
DTITLE=sixtyfive cadillac - sixtyfive cadillac
DYEAR=1998
DGENRE=
TTITLE0=everybody needs somebody to love
TTITLE1=sex machine
TTITLE2=soulman
TTITLE3=mr. pitiful
TTITLE4=gimme some lover
TTITLE5=blue monk
TTITLE6=jackpot
EXTD=
EXTT0=wexler/burns/burke
EXTT1=brown
EXTT2=porter/hayes
EXTT3=redding/cropper
EXTT4=winkwood/winkwood/davis
EXTT5=monk
EXTT6=williw
PLAYORDER=
